<?xml version="1.0" encoding="UTF-8"?>
<svg xmlns="http://www.w3.org/2000/svg" width="1600" height="1000" viewBox="0 0 1600 1000">
  <defs>
    <linearGradient id="sky" x1="0" x2="0" y1="0" y2="1">
      <stop offset="0" stop-color="#172128"/>
      <stop offset="1" stop-color="#0f1716"/>
    </linearGradient>
    <filter id="softShadow" x="-20%" y="-20%" width="140%" height="140%">
      <feDropShadow dx="0" dy="18" stdDeviation="10" flood-color="#000" flood-opacity="0.35"/>
    </filter>
  </defs>
  <rect width="1600" height="1000" fill="url(#sky)"/>
  <ellipse cx="875" cy="820" rx="560" ry="92" fill="#203329"/>
  <g filter="url(#softShadow)">
    <rect x="350.3" y="697.7" width="40.7" height="40.7" fill="#6f7478" stroke="#505456" stroke-width="1" opacity="1"/>
    <rect x="391.0" y="697.7" width="40.7" height="40.7" fill="#6f7478" stroke="#505456" stroke-width="1" opacity="1"/>
    <rect x="431.7" y="697.7" width="40.7" height="40.7" fill="#6f7478" stroke="#505456" stroke-width="1" opacity="1"/>
    <rect x="472.4" y="697.7" width="40.7" height="40.7" fill="#6f7478" stroke="#505456" stroke-width="1" opacity="1"/>
    <rect x="513.1" y="697.7" width="40.7" height="40.7" fill="#6f7478" stroke="#505456" stroke-width="1" opacity="1"/>
    <rect x="553.8" y="697.7" width="40.7" height="40.7" fill="#6f7478" stroke="#505456" stroke-width="1" opacity="1"/>
    <rect x="594.5" y="697.7" width="40.7" height="40.7" fill="#6f7478" stroke="#505456" stroke-width="1" opacity="1"/>
    <rect x="635.2" y="697.7" width="40.7" height="40.7" fill="#6f7478" stroke="#505456" stroke-width="1" opacity="1"/>
    <rect x="675.9" y="697.7" width="40.7" height="40.7" fill="#6f7478" stroke="#505456" stroke-width="1" opacity="1"/>
    <rect x="716.6" y="697.7" width="40.7" height="40.7" fill="#6f7478" stroke="#505456" stroke-width="1" opacity="1"/>
    <rect x="757.2" y="697.7" width="40.7" height="40.7" fill="#6f7478" stroke="#505456" stroke-width="1" opacity="1"/>
    <rect x="797.9" y="697.7" width="40.7" height="40.7" fill="#6f7478" stroke="#505456" stroke-width="1" opacity="1"/>
    <rect x="838.6" y="697.7" width="40.7" height="40.7" fill="#6f7478" stroke="#505456" stroke-width="1" opacity="1"/>
    <rect x="879.3" y="697.7" width="40.7" height="40.7" fill="#6f7478" stroke="#505456" stroke-width="1" opacity="1"/>
    <rect x="920.0" y="697.7" width="40.7" height="40.7" fill="#6f7478" stroke="#505456" stroke-width="1" opacity="1"/>
    <rect x="960.7" y="697.7" width="40.7" height="40.7" fill="#6f7478" stroke="#505456" stroke-width="1" opacity="1"/>
    <rect x="1001.4" y="697.7" width="40.7" height="40.7" fill="#6f7478" stroke="#505456" stroke-width="1" opacity="1"/>
    <rect x="1042.1" y="697.7" width="40.7" height="40.7" fill="#6f7478" stroke="#505456" stroke-width="1" opacity="1"/>
    <rect x="1082.8" y="697.7" width="40.7" height="40.7" fill="#6f7478" stroke="#505456" stroke-width="1" opacity="1"/>
    <rect x="1123.4" y="697.7" width="40.7" height="40.7" fill="#6f7478" stroke="#505456" stroke-width="1" opacity="1"/>
    <rect x="1164.1" y="697.7" width="40.7" height="40.7" fill="#6f7478" stroke="#505456" stroke-width="1" opacity="1"/>
    <rect x="1204.8" y="697.7" width="40.7" height="40.7" fill="#6f7478" stroke="#505456" stroke-width="1" opacity="1"/>
    <rect x="1245.5" y="697.7" width="40.7" height="40.7" fill="#6f7478" stroke="#505456" stroke-width="1" opacity="1"/>
    <rect x="1286.2" y="697.7" width="40.7" height="40.7" fill="#6f7478" stroke="#505456" stroke-width="1" opacity="1"/>
    <rect x="1326.9" y="697.7" width="40.7" height="40.7" fill="#6f7478" stroke="#505456" stroke-width="1" opacity="1"/>
    <rect x="1367.6" y="697.7" width="40.7" height="40.7" fill="#6f7478" stroke="#505456" stroke-width="1" opacity="1"/>
    <rect x="1408.3" y="697.7" width="40.7" height="40.7" fill="#6f7478" stroke="#505456" stroke-width="1" opacity="1"/>
    <rect x="1449.0" y="697.7" width="40.7" height="40.7" fill="#6f7478" stroke="#505456" stroke-width="1" opacity="1"/>
    <rect x="350.3" y="657.0" width="40.7" height="40.7" fill="#8f969b" stroke="#676c70" stroke-width="1" opacity="1"/>
    <rect x="391.0" y="657.0" width="40.7" height="40.7" fill="#8f969b" stroke="#676c70" stroke-width="1" opacity="1"/>
    <rect x="431.7" y="657.0" width="40.7" height="40.7" fill="#8f969b" stroke="#676c70" stroke-width="1" opacity="1"/>
    <rect x="472.4" y="657.0" width="40.7" height="40.7" fill="#8f969b" stroke="#676c70" stroke-width="1" opacity="1"/>
    <rect x="513.1" y="657.0" width="40.7" height="40.7" fill="#8f969b" stroke="#676c70" stroke-width="1" opacity="1"/>
    <rect x="553.8" y="657.0" width="40.7" height="40.7" fill="#8f969b" stroke="#676c70" stroke-width="1" opacity="1"/>
    <rect x="594.5" y="657.0" width="40.7" height="40.7" fill="#8f969b" stroke="#676c70" stroke-width="1" opacity="1"/>
    <rect x="635.2" y="657.0" width="40.7" height="40.7" fill="#8f969b" stroke="#676c70" stroke-width="1" opacity="1"/>
    <rect x="675.9" y="657.0" width="40.7" height="40.7" fill="#8f969b" stroke="#676c70" stroke-width="1" opacity="1"/>
    <rect x="716.6" y="657.0" width="40.7" height="40.7" fill="#8f969b" stroke="#676c70" stroke-width="1" opacity="1"/>
    <rect x="757.2" y="657.0" width="40.7" height="40.7" fill="#8f969b" stroke="#676c70" stroke-width="1" opacity="1"/>
    <rect x="797.9" y="657.0" width="40.7" height="40.7" fill="#8f969b" stroke="#676c70" stroke-width="1" opacity="1"/>
    <rect x="838.6" y="657.0" width="40.7" height="40.7" fill="#8f969b" stroke="#676c70" stroke-width="1" opacity="1"/>
    <rect x="879.3" y="657.0" width="40.7" height="40.7" fill="#8f969b" stroke="#676c70" stroke-width="1" opacity="1"/>
    <rect x="920.0" y="657.0" width="40.7" height="40.7" fill="#8f969b" stroke="#676c70" stroke-width="1" opacity="1"/>
    <rect x="960.7" y="657.0" width="40.7" height="40.7" fill="#8f969b" stroke="#676c70" stroke-width="1" opacity="1"/>
    <rect x="1001.4" y="657.0" width="40.7" height="40.7" fill="#8f969b" stroke="#676c70" stroke-width="1" opacity="1"/>
    <rect x="1042.1" y="657.0" width="40.7" height="40.7" fill="#8f969b" stroke="#676c70" stroke-width="1" opacity="1"/>
    <rect x="1082.8" y="657.0" width="40.7" height="40.7" fill="#8f969b" stroke="#676c70" stroke-width="1" opacity="1"/>
    <rect x="1123.4" y="657.0" width="40.7" height="40.7" fill="#8f969b" stroke="#676c70" stroke-width="1" opacity="1"/>
    <rect x="1164.1" y="657.0" width="40.7" height="40.7" fill="#8f969b" stroke="#676c70" stroke-width="1" opacity="1"/>
    <rect x="1204.8" y="657.0" width="40.7" height="40.7" fill="#8f969b" stroke="#676c70" stroke-width="1" opacity="1"/>
    <rect x="1245.5" y="657.0" width="40.7" height="40.7" fill="#8f969b" stroke="#676c70" stroke-width="1" opacity="1"/>
    <rect x="1286.2" y="657.0" width="40.7" height="40.7" fill="#8f969b" stroke="#676c70" stroke-width="1" opacity="1"/>
    <rect x="1326.9" y="657.0" width="40.7" height="40.7" fill="#8f969b" stroke="#676c70" stroke-width="1" opacity="1"/>
    <rect x="1367.6" y="657.0" width="40.7" height="40.7" fill="#8f969b" stroke="#676c70" stroke-width="1" opacity="1"/>
    <rect x="1408.3" y="657.0" width="40.7" height="40.7" fill="#8f969b" stroke="#676c70" stroke-width="1" opacity="1"/>
    <rect x="1449.0" y="657.0" width="40.7" height="40.7" fill="#8f969b" stroke="#676c70" stroke-width="1" opacity="1"/>
    <rect x="350.3" y="616.3" width="40.7" height="40.7" fill="#59616a" stroke="#40464c" stroke-width="1" opacity="1"/>
    <rect x="350.3" y="616.3" width="40.7" height="40.7" fill="#59616a" stroke="#40464c" stroke-width="1" opacity="1"/>
    <rect x="391.0" y="616.3" width="40.7" height="40.7" fill="#59616a" stroke="#40464c" stroke-width="1" opacity="1"/>
    <rect x="431.7" y="616.3" width="40.7" height="40.7" fill="#59616a" stroke="#40464c" stroke-width="1" opacity="1"/>
    <rect x="472.4" y="616.3" width="40.7" height="40.7" fill="#59616a" stroke="#40464c" stroke-width="1" opacity="1"/>
    <rect x="513.1" y="616.3" width="40.7" height="40.7" fill="#59616a" stroke="#40464c" stroke-width="1" opacity="1"/>
    <rect x="553.8" y="616.3" width="40.7" height="40.7" fill="#59616a" stroke="#40464c" stroke-width="1" opacity="1"/>
    <rect x="594.5" y="616.3" width="40.7" height="40.7" fill="#59616a" stroke="#40464c" stroke-width="1" opacity="1"/>
    <rect x="635.2" y="616.3" width="40.7" height="40.7" fill="#59616a" stroke="#40464c" stroke-width="1" opacity="1"/>
    <rect x="675.9" y="616.3" width="40.7" height="40.7" fill="#59616a" stroke="#40464c" stroke-width="1" opacity="1"/>
    <rect x="716.6" y="616.3" width="40.7" height="40.7" fill="#59616a" stroke="#40464c" stroke-width="1" opacity="1"/>
    <rect x="757.2" y="616.3" width="40.7" height="40.7" fill="#59616a" stroke="#40464c" stroke-width="1" opacity="1"/>
    <rect x="797.9" y="616.3" width="40.7" height="40.7" fill="#59616a" stroke="#40464c" stroke-width="1" opacity="1"/>
    <rect x="838.6" y="616.3" width="40.7" height="40.7" fill="#59616a" stroke="#40464c" stroke-width="1" opacity="1"/>
    <rect x="879.3" y="616.3" width="40.7" height="40.7" fill="#59616a" stroke="#40464c" stroke-width="1" opacity="1"/>
    <rect x="960.7" y="616.3" width="40.7" height="40.7" fill="#59616a" stroke="#40464c" stroke-width="1" opacity="1"/>
    <rect x="1001.4" y="616.3" width="40.7" height="40.7" fill="#59616a" stroke="#40464c" stroke-width="1" opacity="1"/>
    <rect x="1042.1" y="616.3" width="40.7" height="40.7" fill="#59616a" stroke="#40464c" stroke-width="1" opacity="1"/>
    <rect x="1082.8" y="616.3" width="40.7" height="40.7" fill="#59616a" stroke="#40464c" stroke-width="1" opacity="1"/>
    <rect x="1123.4" y="616.3" width="40.7" height="40.7" fill="#59616a" stroke="#40464c" stroke-width="1" opacity="1"/>
    <rect x="1164.1" y="616.3" width="40.7" height="40.7" fill="#59616a" stroke="#40464c" stroke-width="1" opacity="1"/>
    <rect x="1204.8" y="616.3" width="40.7" height="40.7" fill="#59616a" stroke="#40464c" stroke-width="1" opacity="1"/>
    <rect x="1245.5" y="616.3" width="40.7" height="40.7" fill="#59616a" stroke="#40464c" stroke-width="1" opacity="1"/>
    <rect x="1286.2" y="616.3" width="40.7" height="40.7" fill="#59616a" stroke="#40464c" stroke-width="1" opacity="1"/>
    <rect x="1326.9" y="616.3" width="40.7" height="40.7" fill="#59616a" stroke="#40464c" stroke-width="1" opacity="1"/>
    <rect x="1367.6" y="616.3" width="40.7" height="40.7" fill="#59616a" stroke="#40464c" stroke-width="1" opacity="1"/>
    <rect x="1408.3" y="616.3" width="40.7" height="40.7" fill="#59616a" stroke="#40464c" stroke-width="1" opacity="1"/>
    <rect x="1449.0" y="616.3" width="40.7" height="40.7" fill="#59616a" stroke="#40464c" stroke-width="1" opacity="1"/>
    <rect x="1449.0" y="616.3" width="40.7" height="40.7" fill="#59616a" stroke="#40464c" stroke-width="1" opacity="1"/>
    <rect x="350.3" y="575.7" width="40.7" height="40.7" fill="#59616a" stroke="#40464c" stroke-width="1" opacity="1"/>
    <rect x="350.3" y="575.7" width="40.7" height="40.7" fill="#59616a" stroke="#40464c" stroke-width="1" opacity="1"/>
    <rect x="391.0" y="575.7" width="40.7" height="40.7" fill="#59616a" stroke="#40464c" stroke-width="1" opacity="1"/>
    <rect x="431.7" y="575.7" width="40.7" height="40.7" fill="#59616a" stroke="#40464c" stroke-width="1" opacity="1"/>
    <rect x="472.4" y="575.7" width="40.7" height="40.7" fill="#59616a" stroke="#40464c" stroke-width="1" opacity="1"/>
    <rect x="513.1" y="575.7" width="40.7" height="40.7" fill="#59616a" stroke="#40464c" stroke-width="1" opacity="1"/>
    <rect x="553.8" y="575.7" width="40.7" height="40.7" fill="#59616a" stroke="#40464c" stroke-width="1" opacity="1"/>
    <rect x="675.9" y="575.7" width="40.7" height="40.7" fill="#59616a" stroke="#40464c" stroke-width="1" opacity="1"/>
    <rect x="716.6" y="575.7" width="40.7" height="40.7" fill="#59616a" stroke="#40464c" stroke-width="1" opacity="1"/>
    <rect x="757.2" y="575.7" width="40.7" height="40.7" fill="#59616a" stroke="#40464c" stroke-width="1" opacity="1"/>
    <rect x="797.9" y="575.7" width="40.7" height="40.7" fill="#59616a" stroke="#40464c" stroke-width="1" opacity="1"/>
    <rect x="838.6" y="575.7" width="40.7" height="40.7" fill="#59616a" stroke="#40464c" stroke-width="1" opacity="1"/>
    <rect x="879.3" y="575.7" width="40.7" height="40.7" fill="#59616a" stroke="#40464c" stroke-width="1" opacity="1"/>
    <rect x="960.7" y="575.7" width="40.7" height="40.7" fill="#59616a" stroke="#40464c" stroke-width="1" opacity="1"/>
    <rect x="1001.4" y="575.7" width="40.7" height="40.7" fill="#59616a" stroke="#40464c" stroke-width="1" opacity="1"/>
    <rect x="1042.1" y="575.7" width="40.7" height="40.7" fill="#59616a" stroke="#40464c" stroke-width="1" opacity="1"/>
    <rect x="1082.8" y="575.7" width="40.7" height="40.7" fill="#59616a" stroke="#40464c" stroke-width="1" opacity="1"/>
    <rect x="1204.8" y="575.7" width="40.7" height="40.7" fill="#59616a" stroke="#40464c" stroke-width="1" opacity="1"/>
    <rect x="1245.5" y="575.7" width="40.7" height="40.7" fill="#59616a" stroke="#40464c" stroke-width="1" opacity="1"/>
    <rect x="1286.2" y="575.7" width="40.7" height="40.7" fill="#59616a" stroke="#40464c" stroke-width="1" opacity="1"/>
    <rect x="1326.9" y="575.7" width="40.7" height="40.7" fill="#59616a" stroke="#40464c" stroke-width="1" opacity="1"/>
    <rect x="1367.6" y="575.7" width="40.7" height="40.7" fill="#59616a" stroke="#40464c" stroke-width="1" opacity="1"/>
    <rect x="1408.3" y="575.7" width="40.7" height="40.7" fill="#59616a" stroke="#40464c" stroke-width="1" opacity="1"/>
    <rect x="1449.0" y="575.7" width="40.7" height="40.7" fill="#59616a" stroke="#40464c" stroke-width="1" opacity="1"/>
    <rect x="1449.0" y="575.7" width="40.7" height="40.7" fill="#59616a" stroke="#40464c" stroke-width="1" opacity="1"/>
    <rect x="350.3" y="535.0" width="40.7" height="40.7" fill="#59616a" stroke="#40464c" stroke-width="1" opacity="1"/>
    <rect x="350.3" y="535.0" width="40.7" height="40.7" fill="#59616a" stroke="#40464c" stroke-width="1" opacity="1"/>
    <rect x="391.0" y="535.0" width="40.7" height="40.7" fill="#59616a" stroke="#40464c" stroke-width="1" opacity="1"/>
    <rect x="431.7" y="535.0" width="40.7" height="40.7" fill="#59616a" stroke="#40464c" stroke-width="1" opacity="1"/>
    <rect x="472.4" y="535.0" width="40.7" height="40.7" fill="#59616a" stroke="#40464c" stroke-width="1" opacity="1"/>
    <rect x="513.1" y="535.0" width="40.7" height="40.7" fill="#59616a" stroke="#40464c" stroke-width="1" opacity="1"/>
    <rect x="553.8" y="535.0" width="40.7" height="40.7" fill="#59616a" stroke="#40464c" stroke-width="1" opacity="1"/>
    <rect x="675.9" y="535.0" width="40.7" height="40.7" fill="#59616a" stroke="#40464c" stroke-width="1" opacity="1"/>
    <rect x="716.6" y="535.0" width="40.7" height="40.7" fill="#59616a" stroke="#40464c" stroke-width="1" opacity="1"/>
    <rect x="757.2" y="535.0" width="40.7" height="40.7" fill="#59616a" stroke="#40464c" stroke-width="1" opacity="1"/>
    <rect x="797.9" y="535.0" width="40.7" height="40.7" fill="#59616a" stroke="#40464c" stroke-width="1" opacity="1"/>
    <rect x="838.6" y="535.0" width="40.7" height="40.7" fill="#59616a" stroke="#40464c" stroke-width="1" opacity="1"/>
    <rect x="879.3" y="535.0" width="40.7" height="40.7" fill="#59616a" stroke="#40464c" stroke-width="1" opacity="1"/>
    <rect x="920.0" y="535.0" width="40.7" height="40.7" fill="#59616a" stroke="#40464c" stroke-width="1" opacity="1"/>
    <rect x="960.7" y="535.0" width="40.7" height="40.7" fill="#59616a" stroke="#40464c" stroke-width="1" opacity="1"/>
    <rect x="1001.4" y="535.0" width="40.7" height="40.7" fill="#59616a" stroke="#40464c" stroke-width="1" opacity="1"/>
    <rect x="1042.1" y="535.0" width="40.7" height="40.7" fill="#59616a" stroke="#40464c" stroke-width="1" opacity="1"/>
    <rect x="1082.8" y="535.0" width="40.7" height="40.7" fill="#59616a" stroke="#40464c" stroke-width="1" opacity="1"/>
    <rect x="1204.8" y="535.0" width="40.7" height="40.7" fill="#59616a" stroke="#40464c" stroke-width="1" opacity="1"/>
    <rect x="1245.5" y="535.0" width="40.7" height="40.7" fill="#59616a" stroke="#40464c" stroke-width="1" opacity="1"/>
    <rect x="1286.2" y="535.0" width="40.7" height="40.7" fill="#59616a" stroke="#40464c" stroke-width="1" opacity="1"/>
    <rect x="1326.9" y="535.0" width="40.7" height="40.7" fill="#59616a" stroke="#40464c" stroke-width="1" opacity="1"/>
    <rect x="1367.6" y="535.0" width="40.7" height="40.7" fill="#59616a" stroke="#40464c" stroke-width="1" opacity="1"/>
    <rect x="1408.3" y="535.0" width="40.7" height="40.7" fill="#59616a" stroke="#40464c" stroke-width="1" opacity="1"/>
    <rect x="1449.0" y="535.0" width="40.7" height="40.7" fill="#59616a" stroke="#40464c" stroke-width="1" opacity="1"/>
    <rect x="1449.0" y="535.0" width="40.7" height="40.7" fill="#59616a" stroke="#40464c" stroke-width="1" opacity="1"/>
    <rect x="350.3" y="494.3" width="40.7" height="40.7" fill="#59616a" stroke="#40464c" stroke-width="1" opacity="1"/>
    <rect x="350.3" y="494.3" width="40.7" height="40.7" fill="#59616a" stroke="#40464c" stroke-width="1" opacity="1"/>
    <rect x="391.0" y="494.3" width="40.7" height="40.7" fill="#59616a" stroke="#40464c" stroke-width="1" opacity="1"/>
    <rect x="431.7" y="494.3" width="40.7" height="40.7" fill="#59616a" stroke="#40464c" stroke-width="1" opacity="1"/>
    <rect x="472.4" y="494.3" width="40.7" height="40.7" fill="#59616a" stroke="#40464c" stroke-width="1" opacity="1"/>
    <rect x="513.1" y="494.3" width="40.7" height="40.7" fill="#59616a" stroke="#40464c" stroke-width="1" opacity="1"/>
    <rect x="553.8" y="494.3" width="40.7" height="40.7" fill="#59616a" stroke="#40464c" stroke-width="1" opacity="1"/>
    <rect x="594.5" y="494.3" width="40.7" height="40.7" fill="#59616a" stroke="#40464c" stroke-width="1" opacity="1"/>
    <rect x="635.2" y="494.3" width="40.7" height="40.7" fill="#59616a" stroke="#40464c" stroke-width="1" opacity="1"/>
    <rect x="675.9" y="494.3" width="40.7" height="40.7" fill="#59616a" stroke="#40464c" stroke-width="1" opacity="1"/>
    <rect x="716.6" y="494.3" width="40.7" height="40.7" fill="#59616a" stroke="#40464c" stroke-width="1" opacity="1"/>
    <rect x="757.2" y="494.3" width="40.7" height="40.7" fill="#59616a" stroke="#40464c" stroke-width="1" opacity="1"/>
    <rect x="797.9" y="494.3" width="40.7" height="40.7" fill="#59616a" stroke="#40464c" stroke-width="1" opacity="1"/>
    <rect x="838.6" y="494.3" width="40.7" height="40.7" fill="#59616a" stroke="#40464c" stroke-width="1" opacity="1"/>
    <rect x="879.3" y="494.3" width="40.7" height="40.7" fill="#59616a" stroke="#40464c" stroke-width="1" opacity="1"/>
    <rect x="920.0" y="494.3" width="40.7" height="40.7" fill="#59616a" stroke="#40464c" stroke-width="1" opacity="1"/>
    <rect x="960.7" y="494.3" width="40.7" height="40.7" fill="#59616a" stroke="#40464c" stroke-width="1" opacity="1"/>
    <rect x="1001.4" y="494.3" width="40.7" height="40.7" fill="#59616a" stroke="#40464c" stroke-width="1" opacity="1"/>
    <rect x="1042.1" y="494.3" width="40.7" height="40.7" fill="#59616a" stroke="#40464c" stroke-width="1" opacity="1"/>
    <rect x="1082.8" y="494.3" width="40.7" height="40.7" fill="#59616a" stroke="#40464c" stroke-width="1" opacity="1"/>
    <rect x="1123.4" y="494.3" width="40.7" height="40.7" fill="#59616a" stroke="#40464c" stroke-width="1" opacity="1"/>
    <rect x="1164.1" y="494.3" width="40.7" height="40.7" fill="#59616a" stroke="#40464c" stroke-width="1" opacity="1"/>
    <rect x="1204.8" y="494.3" width="40.7" height="40.7" fill="#59616a" stroke="#40464c" stroke-width="1" opacity="1"/>
    <rect x="1245.5" y="494.3" width="40.7" height="40.7" fill="#59616a" stroke="#40464c" stroke-width="1" opacity="1"/>
    <rect x="1286.2" y="494.3" width="40.7" height="40.7" fill="#59616a" stroke="#40464c" stroke-width="1" opacity="1"/>
    <rect x="1326.9" y="494.3" width="40.7" height="40.7" fill="#59616a" stroke="#40464c" stroke-width="1" opacity="1"/>
    <rect x="1367.6" y="494.3" width="40.7" height="40.7" fill="#59616a" stroke="#40464c" stroke-width="1" opacity="1"/>
    <rect x="1408.3" y="494.3" width="40.7" height="40.7" fill="#59616a" stroke="#40464c" stroke-width="1" opacity="1"/>
    <rect x="1449.0" y="494.3" width="40.7" height="40.7" fill="#59616a" stroke="#40464c" stroke-width="1" opacity="1"/>
    <rect x="1449.0" y="494.3" width="40.7" height="40.7" fill="#59616a" stroke="#40464c" stroke-width="1" opacity="1"/>
    <rect x="775.6" y="648.9" width="20.3" height="48.8" fill="#8d43c9" stroke="#663091" stroke-width="1" opacity="1"/>
    <rect x="1084.8" y="648.9" width="20.3" height="48.8" fill="#8d43c9" stroke="#663091" stroke-width="1" opacity="1"/>
    <rect x="350.3" y="453.6" width="40.7" height="40.7" fill="#4e7c43" stroke="#385930" stroke-width="1" opacity="1"/>
    <rect x="391.0" y="453.6" width="40.7" height="40.7" fill="#4e7c43" stroke="#385930" stroke-width="1" opacity="1"/>
    <rect x="431.7" y="453.6" width="40.7" height="40.7" fill="#4e7c43" stroke="#385930" stroke-width="1" opacity="1"/>
    <rect x="472.4" y="453.6" width="40.7" height="40.7" fill="#4e7c43" stroke="#385930" stroke-width="1" opacity="1"/>
    <rect x="513.1" y="453.6" width="40.7" height="40.7" fill="#4e7c43" stroke="#385930" stroke-width="1" opacity="1"/>
    <rect x="553.8" y="453.6" width="40.7" height="40.7" fill="#4e7c43" stroke="#385930" stroke-width="1" opacity="1"/>
    <rect x="594.5" y="453.6" width="40.7" height="40.7" fill="#4e7c43" stroke="#385930" stroke-width="1" opacity="1"/>
    <rect x="635.2" y="453.6" width="40.7" height="40.7" fill="#4e7c43" stroke="#385930" stroke-width="1" opacity="1"/>
    <rect x="675.9" y="453.6" width="40.7" height="40.7" fill="#4e7c43" stroke="#385930" stroke-width="1" opacity="1"/>
    <rect x="716.6" y="453.6" width="40.7" height="40.7" fill="#4e7c43" stroke="#385930" stroke-width="1" opacity="1"/>
    <rect x="757.2" y="453.6" width="40.7" height="40.7" fill="#4e7c43" stroke="#385930" stroke-width="1" opacity="1"/>
    <rect x="797.9" y="453.6" width="40.7" height="40.7" fill="#4e7c43" stroke="#385930" stroke-width="1" opacity="1"/>
    <rect x="838.6" y="453.6" width="40.7" height="40.7" fill="#4e7c43" stroke="#385930" stroke-width="1" opacity="1"/>
    <rect x="879.3" y="453.6" width="40.7" height="40.7" fill="#4e7c43" stroke="#385930" stroke-width="1" opacity="1"/>
    <rect x="920.0" y="453.6" width="40.7" height="40.7" fill="#4e7c43" stroke="#385930" stroke-width="1" opacity="1"/>
    <rect x="960.7" y="453.6" width="40.7" height="40.7" fill="#4e7c43" stroke="#385930" stroke-width="1" opacity="1"/>
    <rect x="1001.4" y="453.6" width="40.7" height="40.7" fill="#4e7c43" stroke="#385930" stroke-width="1" opacity="1"/>
    <rect x="1042.1" y="453.6" width="40.7" height="40.7" fill="#4e7c43" stroke="#385930" stroke-width="1" opacity="1"/>
    <rect x="1082.8" y="453.6" width="40.7" height="40.7" fill="#4e7c43" stroke="#385930" stroke-width="1" opacity="1"/>
    <rect x="1123.4" y="453.6" width="40.7" height="40.7" fill="#4e7c43" stroke="#385930" stroke-width="1" opacity="1"/>
    <rect x="1164.1" y="453.6" width="40.7" height="40.7" fill="#4e7c43" stroke="#385930" stroke-width="1" opacity="1"/>
    <rect x="1204.8" y="453.6" width="40.7" height="40.7" fill="#4e7c43" stroke="#385930" stroke-width="1" opacity="1"/>
    <rect x="1245.5" y="453.6" width="40.7" height="40.7" fill="#4e7c43" stroke="#385930" stroke-width="1" opacity="1"/>
    <rect x="1286.2" y="453.6" width="40.7" height="40.7" fill="#4e7c43" stroke="#385930" stroke-width="1" opacity="1"/>
    <rect x="1326.9" y="453.6" width="40.7" height="40.7" fill="#4e7c43" stroke="#385930" stroke-width="1" opacity="1"/>
    <rect x="1367.6" y="453.6" width="40.7" height="40.7" fill="#4e7c43" stroke="#385930" stroke-width="1" opacity="1"/>
    <rect x="1408.3" y="453.6" width="40.7" height="40.7" fill="#4e7c43" stroke="#385930" stroke-width="1" opacity="1"/>
    <rect x="1449.0" y="453.6" width="40.7" height="40.7" fill="#4e7c43" stroke="#385930" stroke-width="1" opacity="1"/>
    <rect x="363.4" y="494.3" width="14.6" height="162.8" fill="#c9c0ad" stroke="#918a7d" stroke-width="1" opacity="1"/>
    <rect x="1462.0" y="494.3" width="14.6" height="162.8" fill="#c9c0ad" stroke="#918a7d" stroke-width="1" opacity="1"/>
    <rect x="330.0" y="453.6" width="1180.0" height="9.8" fill="#4e7c43" stroke="#385930" stroke-width="1" opacity="1"/>
    <rect x="594.5" y="575.7" width="40.7" height="40.7" fill="#c9c0ad" stroke="#918a7d" stroke-width="1" opacity="1"/>
    <rect x="635.2" y="575.7" width="40.7" height="40.7" fill="#c9c0ad" stroke="#918a7d" stroke-width="1" opacity="1"/>
    <rect x="1123.4" y="575.7" width="40.7" height="40.7" fill="#c9c0ad" stroke="#918a7d" stroke-width="1" opacity="1"/>
    <rect x="1164.1" y="575.7" width="40.7" height="40.7" fill="#c9c0ad" stroke="#918a7d" stroke-width="1" opacity="1"/>
    <rect x="594.5" y="535.0" width="40.7" height="40.7" fill="#c9c0ad" stroke="#918a7d" stroke-width="1" opacity="1"/>
    <rect x="635.2" y="535.0" width="40.7" height="40.7" fill="#c9c0ad" stroke="#918a7d" stroke-width="1" opacity="1"/>
    <rect x="1123.4" y="535.0" width="40.7" height="40.7" fill="#c9c0ad" stroke="#918a7d" stroke-width="1" opacity="1"/>
    <rect x="1164.1" y="535.0" width="40.7" height="40.7" fill="#c9c0ad" stroke="#918a7d" stroke-width="1" opacity="1"/>
    <rect x="920.0" y="575.7" width="40.7" height="81.4" fill="#b08458" stroke="#7f5f3f" stroke-width="1" opacity="1"/>
    <rect x="597.3" y="615.5" width="35.0" height="6.5" fill="#c9c0ad" stroke="#918a7d" stroke-width="1" opacity="1"/>
    <rect x="638.0" y="615.5" width="35.0" height="6.5" fill="#c9c0ad" stroke="#918a7d" stroke-width="1" opacity="1"/>
    <rect x="1126.3" y="615.5" width="35.0" height="6.5" fill="#c9c0ad" stroke="#918a7d" stroke-width="1" opacity="1"/>
    <rect x="1167.0" y="615.5" width="35.0" height="6.5" fill="#c9c0ad" stroke="#918a7d" stroke-width="1" opacity="1"/>
    <rect x="891.5" y="540.1" width="97.7" height="26.4" fill="#c9c0ad" stroke="#918a7d" stroke-width="1" opacity="1"/>
    <rect x="879.3" y="677.4" width="122.1" height="20.3" fill="#c9c0ad" stroke="#918a7d" stroke-width="1" opacity="1"/>
    <rect x="777.6" y="566.7" width="325.5" height="13.8" fill="#8d43c9" stroke="#663091" stroke-width="1" opacity="1"/>
    <rect x="1016.8" y="608.2" width="9.8" height="89.5" fill="#b08458" stroke="#7f5f3f" stroke-width="1" opacity="1"/>
    <rect x="1013.6" y="611.3" width="97.7" height="46.8" fill="#b08458" stroke="#7f5f3f" stroke-width="1" opacity="1"/>
    <rect x="1053.9" y="623.7" width="17.1" height="19.5" fill="#8b642f" stroke="#644822" stroke-width="1" opacity="1"/>
    <rect x="1031.5" y="621.9" width="17.1" height="19.5" fill="#8b642f" stroke="#644822" stroke-width="1" opacity="1"/>
    <rect x="1076.2" y="621.9" width="17.1" height="19.5" fill="#8b642f" stroke="#644822" stroke-width="1" opacity="1"/>
    <rect x="600.2" y="581.4" width="29.3" height="29.3" fill="#a8d9e8" stroke="#799ca7" stroke-width="1" opacity="0.86"/>
    <rect x="640.9" y="581.4" width="29.3" height="29.3" fill="#a8d9e8" stroke="#799ca7" stroke-width="1" opacity="0.86"/>
    <rect x="1129.1" y="581.4" width="29.3" height="29.3" fill="#a8d9e8" stroke="#799ca7" stroke-width="1" opacity="0.86"/>
    <rect x="1169.8" y="581.4" width="29.3" height="29.3" fill="#a8d9e8" stroke="#799ca7" stroke-width="1" opacity="0.86"/>
    <rect x="600.2" y="540.7" width="29.3" height="29.3" fill="#a8d9e8" stroke="#799ca7" stroke-width="1" opacity="0.86"/>
    <rect x="640.9" y="540.7" width="29.3" height="29.3" fill="#a8d9e8" stroke="#799ca7" stroke-width="1" opacity="0.86"/>
    <rect x="1129.1" y="540.7" width="29.3" height="29.3" fill="#a8d9e8" stroke="#799ca7" stroke-width="1" opacity="0.86"/>
    <rect x="1169.8" y="540.7" width="29.3" height="29.3" fill="#a8d9e8" stroke="#799ca7" stroke-width="1" opacity="0.86"/>
    <rect x="929.8" y="590.7" width="21.2" height="30.9" fill="#a8d9e8" stroke="#799ca7" stroke-width="1" opacity="0.86"/>
  </g>
  <g font-family="Inter, ui-sans-serif, system-ui, sans-serif" fill="#f0f7ef">
    <text x="72" y="82" font-size="32" font-weight="700">Ashline Containment Works</text>
    <text x="72" y="116" font-size="18" fill="#bbd0c1">exotic_matter_refinery · front elevation from renderer mesh</text>
    <text x="72" y="162" font-size="16" fill="#d6e5db">
      <tspan x="74" dy="22">exteriorWall: dark_workshop_stone</tspan><tspan x="74" dy="22">foundation: stone_foundation</tspan><tspan x="74" dy="22">roof: green_roof_sod</tspan><tspan x="74" dy="22">trim: carved_limestone</tspan><tspan x="74" dy="22">floor: clean_stone_tile</tspan><tspan x="74" dy="22">awningMaterial: purple_canvas</tspan>
    </text>
    <text x="72" y="935" font-size="16" fill="#a8c3b2">Fresh snapshot generated from the actual renderer mesh: guide materials only, no legacy shells.</text>
  </g>
</svg>